<svg xmlns="http://www.w3.org/2000/svg" width="28" height="32" viewBox="0 0 28 32">
  <defs>
    <style>
      .cls-1 {
        fill: #30318c;
        fill-rule: evenodd;
      }
    </style>
  </defs>
  <path id="Bag" class="cls-1" d="M1006,1181.91a1,1,0,0,0-1-.91h-5v-2a6,6,0,0,0-12,0v2h-5a1,1,0,0,0-1,.91l-2,22a0.976,0.976,0,0,0,.258.76,0.993,0.993,0,0,0,.738.33h26a1.01,1.01,0,0,0,1-1.09ZM990,1179a4,4,0,0,1,8,0v2h-8v-2Zm-7.9,24,1.818-20H988v2.28a1.978,1.978,0,0,0-1,1.72,2,2,0,0,0,4,0,1.978,1.978,0,0,0-1-1.72V1183h8v2.28a1.978,1.978,0,0,0-1,1.72,2,2,0,0,0,4,0,1.968,1.968,0,0,0-1-1.72V1183h4.09l1.81,20H982.1Z" transform="translate(-980 -1173)"/>
</svg>
