<svg xmlns="http://www.w3.org/2000/svg" width="15" height="32" viewBox="0 0 15 32">
  <defs>
    <style>
      .cls-1 {
        fill: #30318c;
        fill-rule: evenodd;
      }
    </style>
  </defs>
  <path id="Dollar" class="cls-1" d="M1000.94,1380.28a7.864,7.864,0,0,0-1-1.82c-0.24-.31-0.5-0.63-0.774-0.95a12.311,12.311,0,0,0-1.018-1.05c-0.37-.37-0.755-0.71-1.143-1.03-0.318-.26-0.615-0.49-0.972-0.77q-0.98-.795-1.628-1.38a7.049,7.049,0,0,1-.926-0.98,3.209,3.209,0,0,1-.538-0.9,0.8,0.8,0,0,1-.083-0.38,0.811,0.811,0,0,1,.067-0.33,1.1,1.1,0,0,1,.407-0.45,1.169,1.169,0,0,1,1.091-.11,1.468,1.468,0,0,1,.492.31,1.038,1.038,0,0,1,.2.58,2.909,2.909,0,0,0,.966,2.17,3.285,3.285,0,0,0,4.4-.01,2.877,2.877,0,0,0,.96-2.16,6.927,6.927,0,0,0-.59-2.82,7.474,7.474,0,0,0-5.841-4.13V1362a1,1,0,0,0-2,0v2.06a7.07,7.07,0,0,0-1.88.48,7.734,7.734,0,0,0-3.344,2.53,7.6,7.6,0,0,0-.922,1.83,6.441,6.441,0,0,0-.352,2.12,7.168,7.168,0,0,0,.592,2.78,9.935,9.935,0,0,0,2.167,3.09,14.854,14.854,0,0,0,1.383,1.32l1.339,1.11c0.679,0.53,1.2.98,1.6,1.36a11.008,11.008,0,0,1,.959,1.01,3.213,3.213,0,0,1,.512.87,0.837,0.837,0,0,1,.084.39,0.906,0.906,0,0,1-.058.34,1.17,1.17,0,0,1-.41.46,1.112,1.112,0,0,1-.64.17,1.273,1.273,0,0,1-.467-0.07,1.339,1.339,0,0,1-.482-0.33,0.925,0.925,0,0,1-.195-0.54,2.941,2.941,0,0,0-.966-2.2,3.29,3.29,0,0,0-4.4.01,2.956,2.956,0,0,0-.957,2.19,6.768,6.768,0,0,0,.581,2.76,7.157,7.157,0,0,0,2.713,3.05,7.778,7.778,0,0,0,3.139,1.14V1392a1,1,0,0,0,2,0v-2.07a8.254,8.254,0,0,0,1.933-.49,7.746,7.746,0,0,0,3.228-2.5,6.526,6.526,0,0,0,1.34-3.96A7.134,7.134,0,0,0,1000.94,1380.28Zm-2.385,5.46a5.624,5.624,0,0,1-2.372,1.84,5.7,5.7,0,0,1-5.252-.48,5.242,5.242,0,0,1-1.963-2.18,4.8,4.8,0,0,1-.4-1.94,0.949,0.949,0,0,1,.322-0.73,1.173,1.173,0,0,1,.84-0.32,1.156,1.156,0,0,1,.835.32,0.925,0.925,0,0,1,.326.73,3,3,0,0,0,.582,1.72,3.255,3.255,0,0,0,4.306.72,3.225,3.225,0,0,0,1.124-1.3,2.883,2.883,0,0,0,.241-1.17,2.77,2.77,0,0,0-.255-1.2,5.237,5.237,0,0,0-.786-1.32,14.836,14.836,0,0,0-1.136-1.2,22.423,22.423,0,0,0-1.728-1.46l-1.314-1.09a13.109,13.109,0,0,1-1.219-1.17,8.154,8.154,0,0,1-1.769-2.49,5.2,5.2,0,0,1-.434-2,4.4,4.4,0,0,1,.242-1.46,5.4,5.4,0,0,1,.643-1.3,5.606,5.606,0,0,1,2.477-1.86,5.3,5.3,0,0,1,2.1-.4,5.651,5.651,0,0,1,3.094.87,5.451,5.451,0,0,1,1.967,2.17,4.923,4.923,0,0,1,.406,1.98,0.912,0.912,0,0,1-.323.7,1.226,1.226,0,0,1-1.674,0,0.909,0.909,0,0,1-.326-0.7,3.1,3.1,0,0,0-.584-1.76,3.3,3.3,0,0,0-1.365-.99,3.184,3.184,0,0,0-2.909.29,3.022,3.022,0,0,0-1.143,1.29,2.78,2.78,0,0,0-.252,1.17,2.673,2.673,0,0,0,.255,1.19,5.19,5.19,0,0,0,.794,1.33,9.994,9.994,0,0,0,1.156,1.23c0.459,0.41,1.03.89,1.755,1.48,0.323,0.25.614,0.48,0.927,0.74a13.473,13.473,0,0,1,1.021.91,11.113,11.113,0,0,1,.879.91c0.254,0.3.491,0.59,0.691,0.85a5.332,5.332,0,0,1,.74,1.35,5.074,5.074,0,0,1,.426,1.97A4.545,4.545,0,0,1,998.555,1385.74Z" transform="translate(-986.5 -1361)"/>
</svg>
