<svg xmlns="http://www.w3.org/2000/svg" width="32" height="32" viewBox="0 0 32 32">
  <defs>
    <style>
      .cls-1 {
        fill: #30318c;
        fill-rule: evenodd;
      }
    </style>
  </defs>
  <path class="cls-1" d="M992.5,982c-4.136,0-7.5-4.093-7.5-9.125a10.191,10.191,0,0,1,2.122-6.37,6.866,6.866,0,0,1,5.378-2.755c4.136,0,7.5,4.093,7.5,9.125S996.636,982,992.5,982Zm0-16.25c-3.034,0-5.5,3.2-5.5,7.125s2.47,7.125,5.5,7.125,5.5-3.2,5.5-7.125S995.532,965.749,992.5,965.749ZM1001.05,992H980.8a2.8,2.8,0,0,1-2.8-2.8,8.209,8.209,0,0,1,8.2-8.2,1,1,0,0,1,0,2,6.206,6.206,0,0,0-6.2,6.2,0.8,0.8,0,0,0,.8.8h23.4a0.8,0.8,0,0,0,.8-0.8,6.206,6.206,0,0,0-6.2-6.2,1,1,0,0,1,0-2,8.211,8.211,0,0,1,8.2,8.2,2.8,2.8,0,0,1-2.8,2.8h-3.15Zm0.69-19.591a0.994,0.994,0,0,1-.97-1.228,9.3,9.3,0,0,0,.23-2.057c0-3.928-2.468-7.125-5.5-7.125a4.408,4.408,0,0,0-2.269.639,1,1,0,0,1-1.017-1.722A6.461,6.461,0,0,1,995.5,960c4.136,0,7.5,4.094,7.5,9.125a11.032,11.032,0,0,1-.29,2.514A0.986,0.986,0,0,1,1001.74,972.409Zm7.1,14.59a1,1,0,0,1-.91-1.406,0.731,0.731,0,0,0,.07-0.326,6.1,6.1,0,0,0-6-6.268,1,1,0,0,1,0-2,8.1,8.1,0,0,1,8,8.268,2.777,2.777,0,0,1-.24,1.138A1,1,0,0,1,1008.84,987Z" transform="translate(-978 -960)"/>
</svg>
